# xmcd
#
# Track frame offsets:
#	150
#	18414
#	32907
#	49886
#	66990
#	80485
#	98698
#	113667
#	127110
#	142339
#	156802
#	174849
#	188836
#	205976
#	223931
#	239979
#	254072
#	268982
#	283751
#	300785
#	314392
#	330568
#
# Disc length: 4555 seconds
#
# Revision: 2
# Processed by: cddbd v1.5.2PL0 Copyright (c) Steve Scherf et al.
# Submitted via: audiograbber 1.83.01
#
DISCID=5711c916
DTITLE=Various Artist - Hit Country 2011
DYEAR=2010
DGENRE=Country
TTITLE0=Tim McGraw - Southern Voice
TTITLE1=Lee Kernaghan - Australian Boy
TTITLE2=McAlister Kemp - Hell Yeah
TTITLE3=Kenny Chesney - Ain't Back Yet
TTITLE4=Carrie Underwood - Undo It
TTITLE5=Doc Walker - If I Fall
TTITLE6=Sara Storer - Calling Me Home
TTITLE7=Catherin Britt - Can't Change A Thing
TTITLE8=Adam Harvey - Better Than This
TTITLE9=Peter McWhirter - I Will Stand By You
TTITLE10=Peter McWhirter - Hurricane
TTITLE11=Joe Nichols - Gimme That Girl
TTITLE12=Miranda Lambert - White Liar
TTITLE13=Gary Allan - Today
TTITLE14=The McClymonts - Hearts On Fire
TTITLE15=Shea Fisher - Getaway Heart
TTITLE16=Jasmin Rae - Can't A Girl Change Her Mind
TTITLE17=Troy Cassar-Dailey - Chasin' Rodeo
TTITLE18=Emerson Drive - I Love This Road
TTITLE19=The Band Perry - Hip To My Heard
TTITLE20=Train - Hey Soul Sister
TTITLE21=Dianna Corcoran - Thank You For Cheating On Me
EXTD=
EXTT0=
EXTT1=
EXTT2=
EXTT3=
EXTT4=
EXTT5=
EXTT6=
EXTT7=
EXTT8=
EXTT9=
EXTT10=
EXTT11=
EXTT12=
EXTT13=
EXTT14=
EXTT15=
EXTT16=
EXTT17=
EXTT18=
EXTT19=
EXTT20=
EXTT21=
PLAYORDER=
